<svg width="50" height="53" viewBox="0 0 50 53" fill="none" xmlns="http://www.w3.org/2000/svg">
<path fill-rule="evenodd" clip-rule="evenodd" d="M24.936 21.7188C24.8624 21.8231 24.8105 21.886 24.7701 21.9555C23.2125 24.6261 21.656 27.2973 20.0993 29.9685C19.6424 30.7523 19.1798 31.533 18.7319 32.322C18.6322 32.4974 18.5201 32.5652 18.314 32.5645C16.002 32.5574 13.6901 32.5599 11.3781 32.5599H6.24592H5.91669C5.99111 32.4219 6.0379 32.329 6.09009 32.2394C6.84755 30.94 7.60596 29.6413 8.36373 28.3422C9.60806 26.2087 10.8545 24.0765 12.0923 21.9392C12.1985 21.7556 12.3148 21.6875 12.5293 21.6878C16.5349 21.6942 20.5407 21.6926 24.5465 21.6919C24.6534 21.6919 24.7603 21.6833 24.8966 21.6773C24.8602 21.5944 24.8429 21.5416 24.8155 21.4944C23.2425 18.794 21.6685 16.0939 20.0948 13.3938C19.6296 12.5954 19.1687 11.7943 18.6959 11.0004C18.6104 10.8569 18.6151 10.7548 18.6981 10.6132C19.9302 8.51145 21.1565 6.40623 22.3835 4.30132C23.1536 2.98033 23.9221 1.6586 24.6915 0.337195C24.7586 0.222212 24.8268 0.107858 24.8867 0.00660647C24.9195 0.0020994 24.928 -0.000835434 24.9361 0.000212721C24.9438 0.00126088 24.9533 0.00461498 24.9579 0.010275C24.9839 0.0428727 25.0126 0.0743173 25.0335 0.110059C27.111 3.67285 29.188 7.23584 31.2701 10.808C29.1652 14.4189 27.064 18.0233 24.9384 21.6695C25.0998 21.679 25.2139 21.6916 25.3281 21.6917C29.283 21.6926 33.2378 21.6914 37.1928 21.6939C37.6843 21.6942 37.5722 21.6178 37.8336 22.0655C39.3964 24.7428 40.9588 27.4203 42.5207 30.0981C42.9609 30.8529 43.399 31.6087 43.8373 32.3644C43.862 32.4069 43.8811 32.4526 43.9131 32.5184C43.8448 32.5347 43.7926 32.5524 43.739 32.5582C43.6805 32.5645 43.6206 32.5599 43.5614 32.5599H31.5949C31.5611 32.5599 31.5265 32.5559 31.4934 32.5606C31.3266 32.5848 31.2304 32.5069 31.1507 32.3659C30.8611 31.8541 30.5619 31.3477 30.2658 30.8396C28.557 27.9072 26.8479 24.9746 25.1384 22.0424C25.084 21.9492 25.0241 21.8593 24.936 21.7188Z" fill="#DA291C"/>
<path fill-rule="evenodd" clip-rule="evenodd" d="M12.4499 52.9017V48.3691C12.2404 48.5889 12.1525 48.812 12.025 49.0075C11.8874 49.2185 11.7614 49.4371 11.6307 49.6526C11.5044 49.8607 11.3788 50.0695 11.2523 50.2778C11.1216 50.4931 10.9901 50.7082 10.8591 50.9235C10.7335 51.13 10.6081 51.3365 10.4563 51.5862C10.1104 51.0205 9.78833 50.4935 9.46587 49.9667C9.14891 49.449 8.84074 48.9255 8.51331 48.4144C8.49182 48.4212 8.47033 48.4279 8.44884 48.4348V52.8834H7.0147C6.95679 52.6955 6.9444 46.6223 7.00242 46.3414C7.06255 46.335 7.12787 46.3223 7.19318 46.322C7.69254 46.3203 8.19212 46.3254 8.69158 46.3182C8.83746 46.3162 8.91866 46.3669 8.9916 46.4934C9.43252 47.2569 9.88297 48.015 10.3306 48.7748C10.3598 48.8243 10.392 48.8722 10.4273 48.9281C10.5535 48.8971 10.5713 48.7833 10.6175 48.7037C11.039 47.9775 11.4587 47.25 11.8701 46.5183C11.9495 46.3772 12.0378 46.3135 12.2072 46.317C12.7148 46.3279 13.223 46.3206 13.7309 46.3215C13.789 46.3216 13.8473 46.3288 13.9016 46.3323C13.9584 46.5137 13.979 52.4861 13.9218 52.899C13.4501 52.9064 12.9722 52.9011 12.4499 52.9017Z" fill="white"/>
<path fill-rule="evenodd" clip-rule="evenodd" d="M6.96717 44.0494H5.48931V41.827V39.6225C5.46888 39.6159 5.44845 39.6094 5.42801 39.6028C4.7887 40.6367 4.1694 41.6832 3.50171 42.7637C2.84642 41.6896 2.2161 40.6566 1.58579 39.6235C1.56504 39.6281 1.54419 39.6326 1.52344 39.6371C1.48321 39.8367 1.51137 40.0424 1.50629 40.2445C1.50089 40.4539 1.50502 40.6637 1.50502 40.8733V41.5021V42.1309V42.7597V43.3884V44.0456C1.00248 44.0863 0.518788 44.0624 0.0173103 44.0626C0.0102174 43.9632 0.000477954 43.8903 0.000477954 43.8176C-0.00015723 41.8222 5.4498e-05 39.8268 0.000160362 37.8314C0.000160362 37.8063 -0.000263094 37.7811 0.000266226 37.756C0.00630047 37.5142 0.0138168 37.5047 0.264608 37.5039C0.747348 37.5021 1.23019 37.51 1.71261 37.4996C1.87946 37.496 1.9741 37.5544 2.0554 37.6952C2.48828 38.4442 2.92941 39.1887 3.36822 39.9344C3.40136 39.9906 3.43915 40.0442 3.47779 40.1037C3.60356 40.0655 3.62378 39.9542 3.67046 39.8736C4.0792 39.1689 4.48921 38.4647 4.8826 37.7516C4.98582 37.5645 5.10344 37.4912 5.31855 37.4985C5.77535 37.5142 6.2329 37.5034 6.69023 37.5034H6.93499C7.00158 37.6955 7.02815 43.5343 6.96717 44.0494Z" fill="white"/>
<path fill-rule="evenodd" clip-rule="evenodd" d="M29.4947 38.7519C29.4947 39.2058 29.4942 39.6144 29.495 40.0231C29.4952 40.1118 29.5385 40.1685 29.6326 40.1669C30.0466 40.1602 30.4631 40.1773 30.8735 40.135C31.2715 40.094 31.4626 39.8765 31.4844 39.4844C31.5131 38.9672 31.2898 38.7983 30.9017 38.7662C30.6327 38.7437 30.3609 38.7545 30.0903 38.7522C29.9058 38.7507 29.7213 38.7519 29.4947 38.7519ZM29.494 42.8173C30.0693 42.8079 30.6065 42.855 31.1423 42.7844C31.2967 42.764 31.4421 42.676 31.5007 42.5321C31.5656 42.3736 31.5998 42.1977 31.6155 42.0266C31.6259 41.9146 31.5966 41.7912 31.5555 41.684C31.4535 41.4192 31.215 41.3435 30.9626 41.3353C30.5328 41.3215 30.1022 41.3322 29.6718 41.3308C29.5608 41.3306 29.4941 41.3724 29.494 41.4903V42.8173ZM28.0341 37.5032H28.2921C29.1725 37.5032 30.0529 37.4946 30.9332 37.508C31.2268 37.5125 31.527 37.5442 31.8114 37.6142C32.567 37.8002 32.926 38.2299 32.987 38.9969C33.0027 39.1947 32.9824 39.3988 32.9522 39.5961C32.8895 40.0054 32.6528 40.2978 32.2883 40.4935C32.21 40.5355 32.1342 40.5816 32.0248 40.6446C32.1218 40.689 32.1797 40.7187 32.24 40.7423C32.7267 40.934 33.0265 41.2802 33.1224 41.7924C33.1943 42.1777 33.1841 42.5618 33.0596 42.9346C32.8593 43.5348 32.4073 43.8579 31.8059 43.9845C31.5516 44.038 31.2867 44.0605 31.0262 44.0631C30.1289 44.0724 29.2316 44.0666 28.3343 44.0666H28.0427C27.9801 43.8544 27.9714 37.7956 28.0341 37.5032Z" fill="white"/>
<path fill-rule="evenodd" clip-rule="evenodd" d="M34.4653 49.2384C34.9461 49.2384 35.4011 49.2624 35.8522 49.2304C36.184 49.2068 36.3816 48.944 36.4169 48.589C36.4627 48.1276 36.3156 47.8039 36.0016 47.6777C35.9706 47.6652 35.9374 47.6555 35.9045 47.6502C35.7965 47.6327 35.6885 47.6062 35.5801 47.604C35.2681 47.5978 34.9559 47.6004 34.6438 47.6029C34.588 47.6034 34.5324 47.6203 34.4653 47.6316V49.2384ZM34.4511 52.9027C33.9898 52.9027 33.5755 52.9033 33.1613 52.9021C33.1033 52.902 33.0454 52.8939 32.9909 52.8897C32.9385 52.7032 32.9242 46.6547 32.9748 46.3453C33.0103 46.3382 33.0503 46.3231 33.0902 46.3232C34.0553 46.3275 35.0206 46.326 35.9854 46.3434C36.2976 46.349 36.6045 46.4179 36.8995 46.5344C37.3719 46.7211 37.6821 47.0565 37.8384 47.5273C38.0006 48.0154 38.0164 48.5204 37.9095 49.0181C37.7854 49.595 37.446 50.0155 36.8778 50.2344C36.8082 50.2612 36.7394 50.2902 36.635 50.3324C36.8904 50.7694 37.1652 51.1777 37.4268 51.5937C37.6898 52.012 37.9524 52.4306 38.2308 52.8741C38.1523 52.8863 38.0988 52.9015 38.0453 52.9018C37.5966 52.9037 37.1477 52.8977 36.6991 52.9056C36.5529 52.9083 36.4701 52.8578 36.3967 52.7321C36.0198 52.0864 35.6263 51.4502 35.2538 50.802C35.1445 50.6117 35.0225 50.5062 34.7939 50.5409C34.6968 50.5556 34.5954 50.5433 34.4603 50.5433C34.4571 50.8291 34.4531 51.0853 34.4515 51.3416C34.45 51.5932 34.4511 51.8447 34.4511 52.0963V52.9027Z" fill="white"/>
<path fill-rule="evenodd" clip-rule="evenodd" d="M27.7451 49.6408C27.7844 49.9854 27.8062 50.3628 27.8748 50.7315C27.9597 51.1886 28.2255 51.5074 28.7068 51.6065C28.9751 51.6618 29.2432 51.6563 29.5121 51.5908C29.7647 51.5294 29.9684 51.3966 30.0966 51.1799C30.1889 51.0236 30.2622 50.8467 30.2982 50.6699C30.3498 50.4167 30.3711 50.1558 30.3841 49.8971C30.4069 49.4444 30.3953 48.9918 30.3002 48.5458C30.1777 47.9703 29.8687 47.6697 29.2885 47.6144C28.4994 47.5391 27.9831 47.8162 27.8531 48.6084C27.799 48.9377 27.7824 49.273 27.7451 49.6408ZM29.0705 46.2129C29.4049 46.2576 29.7455 46.2758 30.0725 46.3521C30.9434 46.5553 31.4732 47.1229 31.7241 47.9577C31.9546 48.7241 31.9714 49.5082 31.9056 50.2984C31.8714 50.7098 31.7945 51.1108 31.6444 51.4974C31.3703 52.203 30.8723 52.6648 30.1312 52.861C29.4386 53.0444 28.7447 53.0463 28.0508 52.8667C27.225 52.6531 26.7097 52.1191 26.4506 51.3306C26.2496 50.7182 26.203 50.0825 26.2186 49.4446C26.2305 48.9597 26.2791 48.4767 26.4174 48.0057C26.7579 46.8459 27.5779 46.3303 28.7123 46.2522C28.83 46.2441 28.9488 46.2511 29.0672 46.2511C29.0682 46.2384 29.0694 46.2257 29.0705 46.2129Z" fill="white"/>
<path fill-rule="evenodd" clip-rule="evenodd" d="M16.4977 49.4889C16.5164 50.0408 16.5062 50.4535 16.6404 50.8499C16.8197 51.3794 17.1503 51.6219 17.7162 51.6407C17.7838 51.643 17.8518 51.6432 17.9195 51.6405C18.5227 51.6175 18.9061 51.3106 19.0236 50.7228C19.1697 49.992 19.1713 49.2555 19.0258 48.5244C18.9173 47.9793 18.6265 47.6967 18.0757 47.6242C17.2055 47.5094 16.6964 47.8505 16.5752 48.6543C16.5266 48.9764 16.5141 49.3039 16.4977 49.4889ZM20.6666 49.67C20.6716 50.1757 20.6267 50.7328 20.4586 51.2754C20.1772 52.1829 19.5778 52.7333 18.6278 52.9157C18.0274 53.0311 17.4341 53.0232 16.8429 52.8838C15.9733 52.6787 15.4355 52.1237 15.1744 51.2918C15.0279 50.8247 14.9708 50.3432 14.9609 49.8554C14.9497 49.3013 14.9703 48.7497 15.1003 48.2076C15.2447 47.6053 15.5037 47.0709 16.0309 46.6999C16.355 46.4717 16.7208 46.3471 17.111 46.293C17.7192 46.2087 18.3239 46.2114 18.9202 46.3824C19.65 46.5915 20.1267 47.0662 20.3921 47.759C20.6207 48.3559 20.67 48.9805 20.6666 49.67Z" fill="white"/>
<path fill-rule="evenodd" clip-rule="evenodd" d="M43.4461 37.5191V40.0421C43.6622 40.1041 45.5025 40.1154 45.8021 40.0603V37.5054C46.3016 37.5012 46.7701 37.5033 47.2139 37.5045C47.2452 37.5335 47.2519 37.5387 47.2574 37.545C47.2627 37.5512 47.2692 37.5579 47.2708 37.5653C47.2777 37.5979 47.2883 37.6307 47.2884 37.6634C47.2892 39.7498 47.2892 41.8363 47.2884 43.9229C47.2884 43.9552 47.2792 43.9876 47.2703 44.0465C46.7932 44.0846 46.3173 44.0666 45.8045 44.0566V41.4761H43.4584C43.445 41.9089 43.4537 42.3331 43.4522 42.757C43.4507 43.1821 43.4518 43.6075 43.4518 44.0481H41.9949C41.9414 43.7733 41.9512 37.7189 42.0063 37.5191H43.4461Z" fill="white"/>
<path fill-rule="evenodd" clip-rule="evenodd" d="M21.4742 37.519H22.919C22.9248 37.6303 22.9342 37.7276 22.9343 37.8251C22.9351 39.108 22.9345 40.3909 22.9355 41.6738C22.9355 41.791 22.9352 41.9095 22.9514 42.0251C23.0031 42.3949 23.2129 42.6347 23.5774 42.735C23.9287 42.8317 24.2822 42.829 24.6303 42.7257C24.9708 42.6245 25.1678 42.3869 25.2251 42.0424C25.2456 41.9192 25.2448 41.7919 25.2449 41.6662C25.2461 40.3917 25.2456 39.1172 25.2456 37.8427V37.5239C25.7453 37.4847 26.215 37.5093 26.7102 37.507C26.7195 37.5894 26.7345 37.6603 26.7346 37.7312C26.7359 39.1567 26.7548 40.5825 26.7292 42.0075C26.7102 43.0533 26.1626 43.7947 25.0813 44.0511C24.3627 44.2214 23.637 44.2165 22.9229 44.0037C21.9701 43.7197 21.4737 42.9915 21.4578 42.0803C21.4323 40.6218 21.4507 39.1625 21.4518 37.7034C21.4519 37.6471 21.4651 37.5908 21.4742 37.519Z" fill="white"/>
<path fill-rule="evenodd" clip-rule="evenodd" d="M43.0848 47.7234C42.733 47.6929 42.3981 47.6514 42.0621 47.6381C41.632 47.6208 41.2011 47.6244 40.7706 47.6244C40.6872 47.6244 40.6023 47.6437 40.5205 47.6642C40.2381 47.7345 40.1168 48.0158 40.2884 48.2487C40.3796 48.3724 40.5122 48.4821 40.6498 48.554C40.9782 48.7254 41.3232 48.865 41.6564 49.0277C41.9516 49.1722 42.2482 49.3167 42.5292 49.4858C43.2382 49.9123 43.4803 50.5603 43.4017 51.3536C43.3287 52.0923 42.9393 52.5766 42.2244 52.7985C41.8521 52.9141 41.4723 52.9824 41.0787 52.9922C40.3821 53.0094 39.6933 52.947 39.0075 52.8355C38.9667 52.8289 38.9261 52.8198 38.86 52.8069C38.836 52.3575 38.8478 51.9121 38.8508 51.4568C39.2847 51.5045 39.6861 51.5545 40.0887 51.5915C40.5353 51.6326 40.983 51.6641 41.4286 51.5799C41.495 51.5673 41.5631 51.5578 41.6263 51.5356C41.989 51.4076 42.0897 50.9925 41.8095 50.7277C41.6899 50.6147 41.5372 50.5288 41.3868 50.4561C41.0146 50.2763 40.6297 50.1222 40.2604 49.937C39.9747 49.7939 39.6912 49.6386 39.4313 49.4549C38.9758 49.1322 38.7382 48.6838 38.7577 48.1205C38.7648 47.9123 38.7726 47.7006 38.8148 47.4976C38.9341 46.9244 39.3137 46.5728 39.863 46.4133C40.1606 46.327 40.4749 46.2758 40.7846 46.2568C41.4776 46.2143 42.1705 46.2536 42.8613 46.3253C43.0902 46.3491 43.1054 46.3618 43.1075 46.5823C43.1103 46.8923 43.1093 47.2024 43.1071 47.5123C43.1067 47.577 43.0939 47.6413 43.0848 47.7234Z" fill="white"/>
<path fill-rule="evenodd" clip-rule="evenodd" d="M36.6332 43.9817V42.6349C36.784 42.652 36.9154 42.6635 37.0456 42.6822C37.6749 42.7719 38.3063 42.8285 38.9423 42.7869C39.1009 42.7765 39.2643 42.752 39.4135 42.6999C39.7482 42.5834 39.8489 42.2138 39.6131 41.9482C39.5106 41.8325 39.3697 41.7391 39.2288 41.67C38.7516 41.4364 38.2621 41.2273 37.7866 40.9904C37.554 40.8744 37.3306 40.7326 37.1231 40.5763C36.7208 40.2731 36.5232 39.8534 36.521 39.3573C36.52 39.1001 36.5361 38.8344 36.601 38.587C36.7494 38.0217 37.1661 37.7119 37.7141 37.5614C38.2328 37.4191 38.7658 37.3922 39.2997 37.4138C39.7387 37.4317 40.1772 37.4686 40.6151 37.5052C40.8553 37.5254 40.8635 37.5413 40.8645 37.7846C40.8659 38.1432 40.8649 38.5019 40.8649 38.8838C40.7537 38.8838 40.6648 38.8879 40.5764 38.883C39.9941 38.8516 39.4123 38.8128 38.8298 38.7884C38.6624 38.7814 38.4901 38.7992 38.3254 38.8319C37.9779 38.901 37.8615 39.2497 38.1105 39.4975C38.2387 39.6249 38.402 39.7269 38.5657 39.8085C38.9355 39.9923 39.3227 40.1423 39.6888 40.3327C39.9941 40.4914 40.2933 40.6691 40.5698 40.8723C40.9014 41.116 41.0904 41.4627 41.1536 41.8692C41.2124 42.2468 41.2003 42.6225 41.0737 42.9861C40.8465 43.6394 40.3192 43.9244 39.685 44.0608C38.982 44.212 38.2711 44.1629 37.5617 44.1153C37.4016 44.1046 37.2419 44.083 37.0829 44.0601C36.9342 44.0386 36.7867 44.0088 36.6332 43.9817Z" fill="white"/>
<path fill-rule="evenodd" clip-rule="evenodd" d="M20.2267 37.5568V38.8842C20.1337 38.8842 20.0449 38.8883 19.9565 38.8834C19.3655 38.8518 18.7748 38.8132 18.1834 38.7886C18.0245 38.7819 17.8615 38.8037 17.7045 38.8338C17.3823 38.8953 17.2568 39.2053 17.4575 39.4631C17.5421 39.5717 17.6658 39.6617 17.7898 39.7266C18.0658 39.871 18.3569 39.9871 18.6351 40.1278C19.0188 40.3218 19.4095 40.5069 19.7734 40.7334C20.3573 41.0967 20.5828 41.6569 20.5634 42.3227C20.5589 42.4809 20.5411 42.6413 20.5071 42.7958C20.3693 43.4231 19.957 43.8051 19.3542 43.9816C19.0646 44.0664 18.7594 44.1189 18.458 44.1396C17.7469 44.1884 17.0368 44.1502 16.3315 44.0418C16.2318 44.0266 16.1331 44.0046 16.0186 43.9828V42.6335C16.1465 42.6479 16.2543 42.6567 16.3609 42.6726C17.0067 42.7685 17.655 42.8272 18.3086 42.7885C18.443 42.7806 18.5772 42.7571 18.7093 42.7301C18.8952 42.6921 19.0455 42.5951 19.0897 42.4035C19.1379 42.1953 19.099 41.9943 18.9174 41.8594C18.7831 41.7598 18.6325 41.6783 18.481 41.6055C18.0019 41.3752 17.5173 41.1558 17.0384 40.925C16.9022 40.8594 16.7739 40.775 16.6489 40.6895C16.1635 40.357 15.8938 39.9005 15.8953 39.312C15.8959 39.0718 15.9279 38.8264 15.9839 38.5925C16.0983 38.115 16.4215 37.8106 16.8749 37.6352C17.2828 37.4774 17.7132 37.4138 18.1446 37.4193C18.7783 37.4274 19.4116 37.4752 20.045 37.5092C20.1017 37.5122 20.157 37.5379 20.2267 37.5568Z" fill="white"/>
<path fill-rule="evenodd" clip-rule="evenodd" d="M20.9232 47.6833V46.3654C21.112 46.3087 25.7067 46.2998 25.9742 46.3579V47.6787C25.8792 47.6854 25.79 47.6966 25.7008 47.6971C25.2945 47.6991 24.8884 47.6967 24.4822 47.6985C24.2075 47.6996 24.1992 47.7073 24.1991 47.983C24.1983 49.508 24.1987 51.0329 24.1987 52.558C24.1987 52.6571 24.1987 52.7564 24.1987 52.8827C23.6949 52.9203 23.2121 52.9001 22.6978 52.897V52.5727C22.6978 51.0896 22.6978 49.6066 22.6978 48.1234C22.6978 48.0732 22.6983 48.0229 22.6976 47.9727C22.6943 47.7107 22.6862 47.7 22.4293 47.6986C22.0231 47.6964 21.6168 47.6987 21.2106 47.6974C21.12 47.6971 21.0293 47.6888 20.9232 47.6833Z" fill="white"/>
<path fill-rule="evenodd" clip-rule="evenodd" d="M13.6609 38.8864V41.4755V44.0076C13.4678 44.0808 12.462 44.0926 12.1685 44.0246V38.9075C12.0552 38.8987 11.9666 38.8863 11.8779 38.8859C11.463 38.8838 11.0482 38.8864 10.6333 38.8842C10.3837 38.883 10.3739 38.8735 10.3722 38.6309C10.3697 38.2716 10.3715 37.9122 10.3715 37.5256C10.9506 37.4801 11.5061 37.5103 12.0603 37.5047C12.6276 37.4992 13.195 37.5036 13.7623 37.5036H15.4473V38.8864H13.6609Z" fill="white"/>
<path fill-rule="evenodd" clip-rule="evenodd" d="M48.5363 37.521H49.955C50.0117 37.7362 50.0164 43.8072 49.9609 44.0503H48.5357C48.4781 43.8246 48.4777 37.7585 48.5363 37.521Z" fill="white"/>
<path fill-rule="evenodd" clip-rule="evenodd" d="M35.5278 37.5325V44.0617C35.0358 44.0698 34.5596 44.0704 34.0625 44.0608C34.0565 43.9421 34.0479 43.8526 34.0478 43.7631C34.047 41.7848 34.0471 39.8066 34.0473 37.8284C34.0473 37.7781 34.0498 37.7277 34.048 37.6775C34.0434 37.5478 34.1095 37.5013 34.2356 37.5026C34.6251 37.5066 35.0144 37.5043 35.4039 37.5062C35.4361 37.5063 35.4682 37.5194 35.5278 37.5325Z" fill="white"/>
<path fill-rule="evenodd" clip-rule="evenodd" d="M8.28713 37.5184H9.67977C9.738 37.7035 9.75748 43.6607 9.7001 44.0481C9.23705 44.0863 8.7685 44.0644 8.30566 44.0596C8.24299 43.8725 8.22541 37.8612 8.28713 37.5184Z" fill="white"/>
<path fill-rule="evenodd" clip-rule="evenodd" d="M29.4939 42.8173V41.4903C29.494 41.3724 29.5607 41.3305 29.6717 41.3308C30.1021 41.3322 30.5327 41.3215 30.9625 41.3353C31.2149 41.3434 31.4534 41.4191 31.5554 41.6839C31.5965 41.7911 31.6258 41.9146 31.6154 42.0266C31.5997 42.1977 31.5654 42.3736 31.5007 42.5321C31.4419 42.6759 31.2967 42.7639 31.1421 42.7844C30.6064 42.8549 30.0692 42.8079 29.4939 42.8173Z" fill="black"/>
<path fill-rule="evenodd" clip-rule="evenodd" d="M29.4948 38.7519C29.7213 38.7519 29.9059 38.7507 30.0904 38.7523C30.361 38.7546 30.6328 38.7438 30.9018 38.7662C31.2899 38.7984 31.5132 38.9672 31.4845 39.4844C31.4627 39.8765 31.2716 40.094 30.8736 40.135C30.4632 40.1773 30.0467 40.1602 29.6327 40.167C29.5386 40.1685 29.4953 40.1118 29.4951 40.0231C29.4943 39.6145 29.4948 39.2058 29.4948 38.7519Z" fill="black"/>
<path fill-rule="evenodd" clip-rule="evenodd" d="M34.4653 49.2382V47.6315C34.5324 47.6201 34.588 47.6033 34.6438 47.6027C34.9559 47.6002 35.2681 47.5976 35.5802 47.6038C35.6886 47.606 35.7966 47.6325 35.9046 47.65C35.9375 47.6554 35.9706 47.665 36.0016 47.6775C36.3156 47.8037 36.4628 48.1274 36.4169 48.5888C36.3817 48.9439 36.184 49.2066 35.8523 49.2302C35.4012 49.2622 34.9462 49.2382 34.4653 49.2382Z" fill="black"/>
<path fill-rule="evenodd" clip-rule="evenodd" d="M27.7451 49.6407C27.7824 49.2729 27.799 48.9376 27.8531 48.6082C27.9831 47.8161 28.4994 47.539 29.2885 47.6143C29.8687 47.6696 30.1777 47.9701 30.3002 48.5457C30.3953 48.9917 30.4069 49.4443 30.3841 49.897C30.3711 50.1556 30.3498 50.4165 30.2982 50.6698C30.2622 50.8466 30.1889 51.0235 30.0966 51.1798C29.9684 51.3964 29.7647 51.5293 29.5121 51.5907C29.2432 51.6562 28.9751 51.6616 28.7068 51.6064C28.2255 51.5072 27.9597 51.1885 27.8748 50.7314C27.8062 50.3627 27.7844 49.9853 27.7451 49.6407Z" fill="black"/>
<path fill-rule="evenodd" clip-rule="evenodd" d="M16.4978 49.4889C16.5142 49.3039 16.5267 48.9764 16.5753 48.6543C16.6965 47.8505 17.2056 47.5094 18.0758 47.6242C18.6266 47.6967 18.9174 47.9793 19.0259 48.5244C19.1714 49.2555 19.1698 49.992 19.0237 50.7228C18.9062 51.3106 18.5228 51.6175 17.9196 51.6405C17.8519 51.6432 17.7839 51.643 17.7163 51.6407C17.1503 51.6219 16.8198 51.3794 16.6405 50.8499C16.5063 50.4535 16.5165 50.0408 16.4978 49.4889Z" fill="black"/>
</svg>
